<svg width="716" height="834" viewBox="0 0 716 834" fill="none" xmlns="http://www.w3.org/2000/svg">
<path fill-rule="evenodd" clip-rule="evenodd" d="M512.388 4.18559C595.626 19.5001 641.772 99.0722 712.258 143.046C780.897 185.867 872.255 196.69 920.768 258.958C973.376 326.484 998.639 413.416 987.374 496.172C976.03 579.511 927.357 657.36 859.064 712.262C795.129 763.662 706.02 767.462 624.458 787.933C544.937 807.891 467.707 845.135 386.801 830.792C302.333 815.818 232.613 763.902 171.457 707.627C106.422 647.782 49.423 579.868 24.9661 497.837C-1.53918 408.935 -15.2868 309.636 28.064 226.668C71.1274 144.251 166.082 99.3537 254.365 58.7997C335.098 21.7134 424.07 -12.0637 512.388 4.18559Z" fill="url(#paint0_linear_884_3086)" fill-opacity="0.5"/>
<defs>
<linearGradient id="paint0_linear_884_3086" x1="231.706" y1="66.5" x2="745.991" y2="772.91" gradientUnits="userSpaceOnUse">
<stop stop-color="#6FCCFF"/>
<stop offset="1" stop-color="#2AB4FF"/>
</linearGradient>
</defs>
</svg>
