<svg width="1323" height="963" viewBox="0 0 1323 963" fill="none" xmlns="http://www.w3.org/2000/svg">
<path fill-rule="evenodd" clip-rule="evenodd" d="M412.143 -340.758C540.514 -388.879 674.685 -290.096 798.28 -230.994C912.211 -176.512 1012.49 -107.318 1096.34 -13.5761C1194.79 96.4785 1332.05 207.593 1321.73 354.181C1311.41 500.729 1155.01 586.512 1046.99 687.346C953.674 774.46 859.501 857.219 738.277 898.843C608.498 943.405 457.187 997.722 337.543 930.948C218.954 864.763 235.134 690.695 161.894 577.16C88.7516 463.777 -95.8977 405.259 -88.1965 270.981C-80.4998 136.78 109.806 99.5508 195.279 -4.95316C281.856 -110.807 283.419 -292.505 412.143 -340.758Z" fill="url(#paint0_linear_763_4237)"/>
<defs>
<linearGradient id="paint0_linear_763_4237" x1="-214" y1="-180.788" x2="1489.1" y2="-59.7478" gradientUnits="userSpaceOnUse">
<stop stop-color="#6ECCFF"/>
<stop offset="1" stop-color="#28B4FF"/>
</linearGradient>
</defs>
</svg>
