<svg width="940" height="932" viewBox="0 0 940 932" fill="none" xmlns="http://www.w3.org/2000/svg">
<path fill-rule="evenodd" clip-rule="evenodd" d="M577.282 -160.384C729.172 -161.916 849.244 -387.012 989.623 -329.642C1120.12 -276.311 1063.48 -68.1951 1118 60.5934C1170.05 183.564 1324.33 276.314 1301.76 407.74C1279.1 539.658 1108.98 583.852 1012.08 677.264C925.412 760.819 880.442 901.674 762.309 927.798C644.157 953.928 540.478 851.438 428.318 806.362C329.076 766.477 217.057 753.173 141.347 678.236C63.027 600.716 19.0436 494.804 3.88537 386.262C-11.2213 278.09 31.3224 175.88 56.337 69.5199C88.0431 -65.292 42.4834 -264.963 170.313 -321.377C306.495 -381.477 428.158 -158.88 577.282 -160.384Z" fill="url(#paint0_linear_763_4236)"/>
<defs>
<linearGradient id="paint0_linear_763_4236" x1="408.185" y1="1096" x2="1317.92" y2="128.27" gradientUnits="userSpaceOnUse">
<stop stop-color="#FFBCDD"/>
<stop offset="0.46875" stop-color="#FFD3CA"/>
<stop offset="1" stop-color="#06A4FF"/>
</linearGradient>
</defs>
</svg>
