<svg width="1170" height="950" viewBox="0 0 1170 950" fill="none" xmlns="http://www.w3.org/2000/svg">
<path fill-rule="evenodd" clip-rule="evenodd" d="M602.424 978.856C730.214 982.385 873.058 1023.16 975.915 959.736C1078.68 896.366 1073.65 770.363 1107.4 667.473C1139.22 570.445 1180.48 477.252 1166.96 377.286C1150.81 257.848 1138.64 118.622 1023.43 46.5682C908.057 -25.5909 744.113 2.07232 602.424 24.2085C481.355 43.1232 383.859 104.335 282.174 162.376C176.939 222.442 12.0175 261.282 1.25368 367.346C-10.0548 478.776 189.575 524.944 234.693 630.236C277.361 729.81 162.753 860.227 246.464 939.588C327.558 1016.47 479.804 975.469 602.424 978.856Z" fill="url(#paint0_linear_763_4060)" fill-opacity="0.6"/>
<defs>
<linearGradient id="paint0_linear_763_4060" x1="245.473" y1="952.5" x2="930.177" y2="10.3013" gradientUnits="userSpaceOnUse">
<stop stop-color="#C4C4C4"/>
<stop offset="0.0001" stop-color="#FFBCDD"/>
<stop offset="1" stop-color="#FFD4CB"/>
</linearGradient>
</defs>
</svg>
