<svg width="1170" height="995" viewBox="0 0 1170 995" fill="none" xmlns="http://www.w3.org/2000/svg">
<path fill-rule="evenodd" clip-rule="evenodd" d="M602.424 16.1444C730.213 12.6146 873.058 -28.1605 975.914 35.2638C1078.68 98.6341 1073.65 224.637 1107.4 327.527C1139.22 424.555 1180.48 517.748 1166.96 617.714C1150.81 737.152 1138.64 876.378 1023.43 948.432C908.057 1020.59 744.113 992.928 602.424 970.791C481.355 951.877 383.859 890.664 282.173 832.624C176.939 772.558 12.0174 733.718 1.25349 627.654C-10.055 516.224 189.574 470.056 234.693 364.764C277.361 265.19 162.753 134.773 246.464 55.4124C327.557 -21.4668 479.804 19.5313 602.424 16.1444Z" fill="url(#paint0_linear_783_3174)" fill-opacity="0.5"/>
<defs>
<linearGradient id="paint0_linear_783_3174" x1="245.472" y1="42.5" x2="930.177" y2="984.699" gradientUnits="userSpaceOnUse">
<stop stop-color="#C4C4C4"/>
<stop offset="0.0001" stop-color="#FFBCDD"/>
<stop offset="1" stop-color="#FFD4CB"/>
</linearGradient>
</defs>
</svg>
