<svg width="37" height="23" viewBox="0 0 37 23" fill="none" xmlns="http://www.w3.org/2000/svg">
<path d="M18.5 0C8.28754 0 0.583374 3.94167 0.583374 9.16667C0.583374 13.6583 6.29879 17.1967 14.3971 18.1133L13.6446 18.865C13.4767 19.0354 13.3434 19.2382 13.2524 19.4616C13.1615 19.685 13.1147 19.9246 13.1147 20.1667C13.1147 20.4087 13.1615 20.6483 13.2524 20.8717C13.3434 21.0951 13.4767 21.2979 13.6446 21.4683C13.8112 21.6402 14.0093 21.7766 14.2277 21.8696C14.446 21.9627 14.6802 22.0106 14.9167 22.0106C15.1532 22.0106 15.3874 21.9627 15.6057 21.8696C15.8241 21.7766 16.0222 21.6402 16.1888 21.4683L19.7721 17.8017C19.9352 17.6273 20.0631 17.4217 20.1484 17.1967C20.3276 16.7503 20.3276 16.2497 20.1484 15.8033C20.0631 15.5783 19.9352 15.3727 19.7721 15.1983L16.1888 11.5317C15.8514 11.1864 15.3938 10.9925 14.9167 10.9925C14.4396 10.9925 13.982 11.1864 13.6446 11.5317C13.3072 11.8769 13.1177 12.3451 13.1177 12.8333C13.1177 13.3216 13.3072 13.7898 13.6446 14.135L13.8596 14.3367C7.75004 13.4567 4.16671 11 4.16671 9.16667C4.16671 6.93 9.75671 3.66667 18.5 3.66667C27.2434 3.66667 32.8334 6.93 32.8334 9.16667C32.8334 10.6883 30.2355 12.8333 25.2905 13.9333C25.0564 13.9792 24.8336 14.0724 24.6352 14.2075C24.4368 14.3426 24.2667 14.5168 24.1349 14.7199C24.0031 14.9231 23.9122 15.1511 23.8676 15.3907C23.823 15.6302 23.8255 15.8765 23.875 16.115C23.924 16.3512 24.018 16.5752 24.1518 16.7741C24.2855 16.973 24.4563 17.1429 24.6545 17.2741C24.8526 17.4053 25.074 17.4951 25.3062 17.5385C25.5383 17.5818 25.7765 17.5778 26.0071 17.5267C32.5467 16.06 36.4167 12.9433 36.4167 9.16667C36.4167 3.94167 28.7125 0 18.5 0Z" fill="white"/>
</svg>
