<svg width="153" height="33" viewBox="0 0 153 33" fill="none" xmlns="http://www.w3.org/2000/svg">
<path d="M77.4643 5.58124V32.4772H71.4841V0.0146484H85.0093C89.9169 0.0146484 94.8244 2.7961 94.8244 8.91602C94.8244 11.8377 93.463 14.2023 91.3209 15.7332C93.8763 17.1239 95.8151 19.7209 95.8151 23.0594C95.8151 29.5039 90.9076 32.4735 85.672 32.4735H79.5277L80.6004 28.3935C80.8891 27.5119 81.6731 26.9106 82.4965 26.9106C85.3013 26.9106 89.8349 27.1873 89.8349 22.6905C89.8349 19.8168 87.5254 18.5183 85.216 18.5183H79.6097C80.0231 17.2677 80.1051 16.7513 80.5184 15.5008C80.8071 14.6191 81.6305 14.0178 82.4571 14.0178C84.9306 14.0178 88.8474 13.3722 88.8474 9.43247C88.8474 6.69529 86.784 5.58493 84.6419 5.58493H77.4676L77.4643 5.58124Z" fill="#05A3FF"/>
<path d="M152.931 32.4772H147.61C146.868 32.4772 146.084 32.0124 145.753 31.2266L141.216 21.3034C140.885 20.514 140.104 20.0529 139.359 20.0529H134.081V32.4809H128.101V14.5306H141.708C144.1 14.5306 146.202 13.0476 146.202 10.1703C146.202 7.2929 144.1 5.80995 141.708 5.80995H130.161C129.049 5.80995 128.098 4.74385 128.098 3.4933V0.0146484H142.243C147.646 0.0146484 152.179 3.67775 152.179 10.078C152.179 14.2059 149.913 17.5444 146.612 19.1196L152.921 32.4735L152.931 32.4772Z" fill="#05A3FF"/>
<path d="M5.88514 32.4774H0.436338C0.193586 32.4774 -0.00324002 32.2708 4.04185e-05 32.0237C4.04185e-05 31.9757 0.00988169 31.9241 0.0262839 31.8761L11.0846 0.450171C11.1896 0.18088 11.4488 0.00750006 11.7309 0.0185668H18.8724C19.1447 0.0185668 19.3907 0.191946 19.4891 0.450171L30.6688 31.8761C30.7508 32.1122 30.6294 32.3667 30.3998 32.4516C30.3539 32.4663 30.3047 32.4774 30.2555 32.4774H24.6099C24.4261 32.4774 24.2588 32.363 24.1932 32.1897L15.5821 6.94637C15.5001 6.71396 15.464 6.59961 15.3131 6.6033C15.1852 6.6033 15.0966 6.82094 15.0507 6.94637L6.30831 32.186C6.23943 32.363 6.07212 32.4774 5.88514 32.4737V32.4774Z" fill="#05A3FF"/>
<path d="M122.229 0H101.385C101.041 0 100.762 0.313559 100.762 0.700896C100.762 3.53399 102.803 5.8285 105.322 5.8285H122.226C122.482 5.83219 122.689 5.60348 122.692 5.31943C122.692 5.31574 122.692 5.30836 122.692 5.30467V0.523827C122.692 0.232402 122.482 0 122.226 0H122.229Z" fill="#05A3FF"/>
<path d="M122.229 26.6747H106.673C106.418 26.671 106.211 26.4386 106.208 26.1509V19.8059C106.208 19.5145 106.418 19.2821 106.673 19.2821H121.052C121.311 19.2821 121.517 19.046 121.517 18.7583V13.9442C121.517 13.6528 121.307 13.4204 121.052 13.4204H101.458C101.07 13.4241 100.762 13.7782 100.762 14.2098V31.6953C100.762 32.1269 101.074 32.4774 101.458 32.4774H122.226C122.485 32.4774 122.692 32.2413 122.692 31.9536V27.1764C122.682 26.8961 122.475 26.6747 122.226 26.6784L122.229 26.6747Z" fill="#05A3FF"/>
<path d="M66.1894 0.0146484V32.4735H60.2092V8.59509L50.6828 30.1568L41.0088 8.59509V32.4735H35.0286V0.0146484H40.6643C40.7464 0.0146484 40.8284 0.0146486 40.9071 0.0220265C41.0514 0.0330932 41.1925 0.0589158 41.3303 0.0884272C42.2914 0.320829 43.1214 1.03279 43.5905 2.05462L50.6008 17.4485L50.6106 17.4301L50.6172 17.4485L57.6275 2.05462C58.0703 1.0955 58.8248 0.409363 59.7073 0.140072C59.7729 0.121627 59.8352 0.103183 59.9008 0.0884272C59.9664 0.0736715 60.032 0.0626046 60.0976 0.0515378C60.242 0.0257154 60.3896 0.0146484 60.5405 0.0146484H66.1894Z" fill="#05A3FF"/>
</svg>
